<svg xmlns="http://www.w3.org/2000/svg" xmlns:xlink="http://www.w3.org/1999/xlink" xmlns:lucid="lucid" width="1876.85" height="560.5"><g transform="translate(291.45 160)" lucid:page-tab-id="0_0"><path d="M-1696-1296h3456v2656h-3456z" fill="#fff"/><path d="M800 5c0-2.76 2.24-5 5-5h178c2.76 0 5 2.24 5 5v40c0 2.76-2.24 5-5 5H805c-2.76 0-5-2.24-5-5z" stroke="#000" stroke-width="2" fill="#fff"/><use xlink:href="#a" transform="matrix(1,0,0,1,800,0) translate(35.05499999999999 30.025)"/><path d="M700 165c0-2.76 2.24-5 5-5h290c2.76 0 5 2.24 5 5v50.5c0 2.76-2.24 5-5 5H705c-2.76 0-5-2.24-5-5z" stroke="#000" stroke-width="2" fill="#fff"/><use xlink:href="#b" transform="matrix(1,0,0,1,700,160) translate(18.155000000000037 33.4625)"/><path d="M895 100.16l-1.1 3.4-2.92 2.13-1.9.3h-2.93l-2.5.82-1.45 2-.2 1.26v30.68h-2v-30.84l.3-1.9 2.12-2.9 3.4-1.12h3.1l1.26-.2 2-1.46.82-2.5V87.9h2zm0-33.87h-2V51h2zM895 51h-2v-1h2zM881 155.76l-4.64-14.26h9.27z"/><path d="M881 159l-6.02-18.5H887zm-3.27-16.5l3.26 10.03 3.25-10.03z"/><use xlink:href="#c" transform="matrix(1,0,0,1,814.075,66.29376308240624) translate(0 14.4)"/><path d="M1260 5c0-2.76 2.24-5 5-5h252c2.76 0 5 2.24 5 5v50c0 2.76-2.24 5-5 5h-252c-2.76 0-5-2.24-5-5z" stroke="#000" stroke-width="2" fill="#fff"/><use xlink:href="#d" transform="matrix(1,0,0,1,1260,0) translate(26.10500000000001 33.15)"/><path d="M1326.5 115.16l-1.1 3.4-2.92 2.13-1.9.3h-370.5l-2.5.82-1.46 2-.2 1.26v16.68h-2v-16.84l.3-1.9 2.12-2.9 3.42-1.12h370.66l1.26-.2 2-1.46.82-2.5V60h2z"/><path/><path d="M944.9 156.76l-4.62-14.26h9.27z"/><path d="M944.9 160l-6-18.5h12.03zm-3.24-16.5l3.25 10.03 3.27-10.03z"/><use xlink:href="#e" transform="matrix(1,0,0,1,1150.6432409555202,94.39999999999999) translate(0 14.4)"/><path d="M-216-13c0-2.76 2.24-5 5-5H75c2.76 0 5 2.24 5 5v40c0 2.76-2.24 5-5 5h-286c-2.76 0-5-2.24-5-5z" stroke="#000" stroke-width="2" fill="#fff"/><use xlink:href="#f" transform="matrix(1,0,0,1,-216,-18) translate(21.680000000000014 30.025)"/><path d="M391 185.1l.82 2.5 2 1.45 1.26.2h285.68v2H394.92l-1.9-.3-2.9-2.13-1.12-3.4v-76h2zm-2.43-178l2.12 2.92.3 1.9v75.9h-2V12.1l-.2-1.26-1.46-2-2.5-.82H81V6h304.16zM81 8h-1V6h1zM695.76 190.25l-14.26 4.64v-9.3z"/><path d="M699 190.25l-18.5 6v-12zm-16.5 3.26l10.03-3.25L682.5 187z"/><use xlink:href="#e" transform="matrix(1,0,0,1,326.075,87.82500047683716) translate(0 14.4)"/><path d="M770-135c0-2.76 2.24-5 5-5h238c2.76 0 5 2.24 5 5v50c0 2.76-2.24 5-5 5H775c-2.76 0-5-2.24-5-5z" stroke="#000" stroke-width="2" fill="#fff"/><use xlink:href="#g" transform="matrix(1,0,0,1,770,-140) translate(25.080000000000005 33.15)"/><path d="M895-19.24h-2v-18.63h2zm0-40.23h-2V-79h2zM895-79h-2v-1h2zM894-4.24l-4.64-14.26h9.28z"/><path d="M894-1l-6-18.5h12zm-3.26-16.5L894-7.47l3.26-10.03z"/><use xlink:href="#h" transform="matrix(1,0,0,1,830.075,-59.46669683640354) translate(0 14.4)"/><path d="M700 325c0-2.76 2.24-5 5-5h210c2.76 0 5 2.24 5 5v50.5c0 2.76-2.24 5-5 5H705c-2.76 0-5-2.24-5-5z" stroke="#000" stroke-width="2" fill="#fff"/><use xlink:href="#i" transform="matrix(1,0,0,1,700,320) translate(19.779999999999994 33.4625)"/><path d="M811 300.76h-2v-19.7h2zm40-41.3h-2V221.5h2zM851 221.5h-2v-1h2zM810 315.76l-4.64-14.26h9.28z"/><path d="M810 319l-6-18.5h12zm-3.26-16.5l3.26 10.03 3.26-10.03z"/><use xlink:href="#h" transform="matrix(1,0,0,1,766.075,259.450001) translate(0 14.4)"/><path d="M41 120.76h-2V96.8h2zM-67 75.2h-2V33h2zM-67 33h-2v-1h2zM40 135.76l-4.64-14.26h9.28z"/><path d="M40 139l-6-18.5h12zm-3.26-16.5L40 132.53l3.26-10.03z"/><use xlink:href="#j" transform="matrix(1,0,0,1,-86.63412611815437,75.2) translate(0 14.4)"/><path d="M1460 245c0-2.76 2.24-5 5-5h70c2.76 0 5 2.24 5 5v40c0 2.76-2.24 5-5 5h-70c-2.76 0-5-2.24-5-5z" stroke="#000" stroke-width="2" fill="#fff"/><use xlink:href="#k" transform="matrix(1,0,0,1,1460,240) translate(23.53 30.025)"/><path d="M1260 245c0-2.76 2.24-5 5-5h70c2.76 0 5 2.24 5 5v40c0 2.76-2.24 5-5 5h-70c-2.76 0-5-2.24-5-5z" stroke="#000" stroke-width="2" fill="#fff"/><use xlink:href="#k" transform="matrix(1,0,0,1,1260,240) translate(23.53 30.025)"/><path d="M1501 220.76h-2v-70.03h2zm-43.5-143.92l.82 2.5 2 1.46 1.26.2h33.58l3.4 1.1 2.13 2.92.3 1.9v42.2h-2V87.1l-.2-1.26-1.46-2-2.5-.82h-33.42l-1.9-.3-2.9-2.13-1.12-3.4V60h2z"/><path/><path d="M1500 235.76l-4.64-14.26h9.28z"/><path d="M1500 239l-6-18.5h12zm-3.26-16.5l3.26 10.03 3.26-10.03z"/><use xlink:href="#l" transform="matrix(1,0,0,1,1425.6,129.13114543706814) translate(0 14.4)"/><path d="M1301 220.76h-2V160.8h2zm91-75.6l-1.1 3.4-2.92 2.13-1.9.3h-.23v-2h.07l1.26-.2 2-1.46.82-2.5V61h2zM1392 61h-2v-1h2zM1300 235.76l-4.64-14.26h9.28z"/><path d="M1300 239l-6-18.5h12zm-3.26-16.5l3.26 10.03 3.26-10.03z"/><use xlink:href="#m" transform="matrix(1,0,0,1,1274.9478159062103,139.2) translate(0 14.4)"/><path d="M-260 145c0-2.76 2.24-5 5-5h70c2.76 0 5 2.24 5 5v40c0 2.76-2.24 5-5 5h-70c-2.76 0-5-2.24-5-5z" stroke="#000" stroke-width="2" fill="#fff"/><use xlink:href="#n" transform="matrix(1,0,0,1,-260,140) translate(23.53 30.025)"/><path d="M0 145c0-2.76 2.24-5 5-5h70c2.76 0 5 2.24 5 5v40c0 2.76-2.24 5-5 5H5c-2.76 0-5-2.24-5-5z" stroke="#000" stroke-width="2" fill="#fff"/><use xlink:href="#n" transform="matrix(1,0,0,1,0,140) translate(23.53 30.025)"/><path d="M440 5c0-2.76 2.24-5 5-5h298c2.76 0 5 2.24 5 5v40c0 2.76-2.24 5-5 5H445c-2.76 0-5-2.24-5-5z" stroke="#000" stroke-width="2" fill="#fff"/><use xlink:href="#o" transform="matrix(1,0,0,1,440,0) translate(26.65500000000001 30.025)"/><path d="M791.1 103.5l3.4 1.1 2.12 2.92.3 1.9v31.34h-2v-31.18l-.2-1.26-1.46-2-2.5-.82h-6.2v-2zm-143.95-1.66l2 1.46 1.26.2h6.3v2h-6.45l-1.9-.3-2.9-2.13-1.12-3.4V50h2v49.34z"/><path/><path d="M795.93 155.76l-4.64-14.26h9.26z"/><path d="M795.93 159l-6-18.5h12zm-3.26-16.5l3.26 10.03 3.26-10.03z"/><use xlink:href="#e" transform="matrix(1,0,0,1,656.7062188091452,93.7) translate(0 14.4)"/><path d="M460 125c0-2.76 2.24-5 5-5h70c2.76 0 5 2.24 5 5v50c0 2.76-2.24 5-5 5h-70c-2.76 0-5-2.24-5-5z" stroke="#000" stroke-width="2" fill="#fff"/><use xlink:href="#k" transform="matrix(1,0,0,1,460,120) translate(23.53 33.15)"/><path d="M501 100.76h-2V90.2h2zm42.67-32.16h-2V50h2z"/><path/><path d="M500 115.76l-4.64-14.26h9.28z"/><path d="M500 119l-6-18.5h12zm-3.26-16.5l3.26 10.03 3.26-10.03z"/><use xlink:href="#p" transform="matrix(1,0,0,1,494.1916666666667,68.60026176747368) translate(0 14.4)"/><path d="M-219 120.76h-2v-16.44h2zm78-40.1l-1.1 3.4-2.92 2.13-1.9.3h-12.63v-2h12.47l1.26-.2 2-1.46.82-2.5V32h2z"/><path/><path d="M-220 135.76l-4.64-14.26h9.28z"/><path d="M-220 139l-6-18.5h12zm-3.26-16.5l3.26 10.03 3.26-10.03z"/><use xlink:href="#q" transform="matrix(1,0,0,1,-280.45,82.72276302408149) translate(0 14.4)"/><path d="M1392 121.76h-2V61h2zM1392 61h-2v-1h2zM1391 136.76l-4.64-14.26h9.28z"/><path d="M1391 140l-6-18.5h12zm-3.26-16.5l3.26 10.03 3.26-10.03z"/><defs><path d="M135-143c-3-34-86-38-87 0 15 53 115 12 119 90S17 21 10-45l28-5c4 36 97 45 98 0-10-56-113-15-118-90-4-57 82-63 122-42 12 7 21 19 24 35" id="r"/><path d="M96-169c-40 0-48 33-48 73s9 75 48 75c24 0 41-14 43-38l32 2c-6 37-31 61-74 61-59 0-76-41-82-99-10-93 101-131 147-64 4 7 5 14 7 22l-32 3c-4-21-16-35-41-35" id="s"/><path d="M106-169C34-169 62-67 57 0H25v-261h32l-1 103c12-21 28-36 61-36 89 0 53 116 60 194h-32v-121c2-32-8-49-39-48" id="t"/><path d="M100-194c63 0 86 42 84 106H49c0 40 14 67 53 68 26 1 43-12 49-29l28 8c-11 28-37 45-77 45C44 4 14-33 15-96c1-61 26-98 85-98zm52 81c6-60-76-77-97-28-3 7-6 17-6 28h103" id="u"/><path d="M210-169c-67 3-38 105-44 169h-31v-121c0-29-5-50-35-48C34-165 62-65 56 0H25l-1-190h30c1 10-1 24 2 32 10-44 99-50 107 0 11-21 27-35 58-36 85-2 47 119 55 194h-31v-121c0-29-5-49-35-48" id="v"/><path d="M141-36C126-15 110 5 73 4 37 3 15-17 15-53c-1-64 63-63 125-63 3-35-9-54-41-54-24 1-41 7-42 31l-33-3c5-37 33-52 76-52 45 0 72 20 72 64v82c-1 20 7 32 28 27v20c-31 9-61-2-59-35zM48-53c0 20 12 33 32 33 41-3 63-29 60-74-43 2-92-5-92 41" id="w"/><path d="M33-154v-36h34v36H33zM33 0v-36h34V0H33" id="x"/><path d="M205 0l-28-72H64L36 0H1l101-248h38L239 0h-34zm-38-99l-47-123c-12 45-31 82-46 123h93" id="y"/><path d="M59-47c-2 24 18 29 38 22v24C64 9 27 4 27-40v-127H5v-23h24l9-43h21v43h35v23H59v120" id="z"/><path d="M24-231v-30h32v30H24zM24 0v-190h32V0H24" id="A"/><path d="M100-194c62-1 85 37 85 99 1 63-27 99-86 99S16-35 15-95c0-66 28-99 85-99zM99-20c44 1 53-31 53-75 0-43-8-75-51-75s-53 32-53 75 10 74 51 75" id="B"/><path d="M117-194c89-4 53 116 60 194h-32v-121c0-31-8-49-39-48C34-167 62-67 57 0H25l-1-190h30c1 10-1 24 2 32 11-22 29-35 61-36" id="C"/><g id="a"><use transform="matrix(0.05,0,0,0.05,0,0)" xlink:href="#r"/><use transform="matrix(0.05,0,0,0.05,9,0)" xlink:href="#s"/><use transform="matrix(0.05,0,0,0.05,18,0)" xlink:href="#t"/><use transform="matrix(0.05,0,0,0.05,28,0)" xlink:href="#u"/><use transform="matrix(0.05,0,0,0.05,38,0)" xlink:href="#v"/><use transform="matrix(0.05,0,0,0.05,52.95,0)" xlink:href="#w"/><use transform="matrix(0.05,0,0,0.05,62.95,0)" xlink:href="#x"/><use transform="matrix(0.05,0,0,0.05,67.95,0)" xlink:href="#y"/><use transform="matrix(0.05,0,0,0.05,79.95,0)" xlink:href="#s"/><use transform="matrix(0.05,0,0,0.05,88.95,0)" xlink:href="#z"/><use transform="matrix(0.05,0,0,0.05,93.95,0)" xlink:href="#A"/><use transform="matrix(0.05,0,0,0.05,97.9,0)" xlink:href="#B"/><use transform="matrix(0.05,0,0,0.05,107.9,0)" xlink:href="#C"/></g><path d="M101-234c-31-9-42 10-38 44h38v23H63V0H32v-167H5v-23h27c-7-52 17-82 69-68v24" id="D"/><path d="M179-190L93 31C79 59 56 82 12 73V49c39 6 53-20 64-50L1-190h34L92-34l54-156h33" id="E"/><path d="M84 4C-5 8 30-112 23-190h32v120c0 31 7 50 39 49 72-2 45-101 50-169h31l1 190h-30c-1-10 1-25-2-33-11 22-28 36-60 37" id="F"/><path d="M185-189c-5-48-123-54-124 2 14 75 158 14 163 119 3 78-121 87-175 55-17-10-28-26-33-46l33-7c5 56 141 63 141-1 0-78-155-14-162-118-5-82 145-84 179-34 5 7 8 16 11 25" id="G"/><path d="M115-194c55 1 70 41 70 98S169 2 115 4C84 4 66-9 55-30l1 105H24l-1-265h31l2 30c10-21 28-34 59-34zm-8 174c40 0 45-34 45-75s-6-73-45-74c-42 0-51 32-51 76 0 43 10 73 51 73" id="H"/><g id="b"><use transform="matrix(0.05,0,0,0.05,0,0)" xlink:href="#r"/><use transform="matrix(0.05,0,0,0.05,9,0)" xlink:href="#v"/><use transform="matrix(0.05,0,0,0.05,23.950000000000003,0)" xlink:href="#z"/><use transform="matrix(0.05,0,0,0.05,28.950000000000003,0)" xlink:href="#D"/><use transform="matrix(0.05,0,0,0.05,33.95,0)" xlink:href="#E"/><use transform="matrix(0.05,0,0,0.05,42.95,0)" xlink:href="#x"/><use transform="matrix(0.05,0,0,0.05,47.95,0)" xlink:href="#y"/><use transform="matrix(0.05,0,0,0.05,59.95,0)" xlink:href="#F"/><use transform="matrix(0.05,0,0,0.05,69.95,0)" xlink:href="#z"/><use transform="matrix(0.05,0,0,0.05,74.95,0)" xlink:href="#t"/><use transform="matrix(0.05,0,0,0.05,84.95,0)" xlink:href="#u"/><use transform="matrix(0.05,0,0,0.05,94.95,0)" xlink:href="#C"/><use transform="matrix(0.05,0,0,0.05,104.95,0)" xlink:href="#z"/><use transform="matrix(0.05,0,0,0.05,109.95,0)" xlink:href="#A"/><use transform="matrix(0.05,0,0,0.05,113.9,0)" xlink:href="#s"/><use transform="matrix(0.05,0,0,0.05,122.9,0)" xlink:href="#w"/><use transform="matrix(0.05,0,0,0.05,132.9,0)" xlink:href="#z"/><use transform="matrix(0.05,0,0,0.05,137.9,0)" xlink:href="#A"/><use transform="matrix(0.05,0,0,0.05,141.85,0)" xlink:href="#B"/><use transform="matrix(0.05,0,0,0.05,151.85,0)" xlink:href="#C"/><use transform="matrix(0.05,0,0,0.05,161.85,0)" xlink:href="#G"/><use transform="matrix(0.05,0,0,0.05,173.85,0)" xlink:href="#H"/><use transform="matrix(0.05,0,0,0.05,183.85,0)" xlink:href="#u"/><use transform="matrix(0.05,0,0,0.05,193.85,0)" xlink:href="#s"/><use transform="matrix(0.05,0,0,0.05,202.85,0)" xlink:href="#A"/><use transform="matrix(0.05,0,0,0.05,206.79999999999995,0)" xlink:href="#D"/><use transform="matrix(0.05,0,0,0.05,211.79999999999995,0)" xlink:href="#A"/><use transform="matrix(0.05,0,0,0.05,215.74999999999997,0)" xlink:href="#s"/><use transform="matrix(0.05,0,0,0.05,224.74999999999997,0)" xlink:href="#w"/><use transform="matrix(0.05,0,0,0.05,234.74999999999997,0)" xlink:href="#z"/><use transform="matrix(0.05,0,0,0.05,239.74999999999997,0)" xlink:href="#A"/><use transform="matrix(0.05,0,0,0.05,243.69999999999996,0)" xlink:href="#B"/><use transform="matrix(0.05,0,0,0.05,253.69999999999996,0)" xlink:href="#C"/></g><g id="c"><use transform="matrix(0.05,0,0,0.05,0,0)" xlink:href="#r"/><use transform="matrix(0.05,0,0,0.05,9,0)" xlink:href="#v"/><use transform="matrix(0.05,0,0,0.05,23.950000000000003,0)" xlink:href="#z"/><use transform="matrix(0.05,0,0,0.05,28.950000000000003,0)" xlink:href="#D"/><use transform="matrix(0.05,0,0,0.05,33.95,0)" xlink:href="#E"/><use transform="matrix(0.05,0,0,0.05,42.95,0)" xlink:href="#x"/><use transform="matrix(0.05,0,0,0.05,47.95,0)" xlink:href="#w"/><use transform="matrix(0.05,0,0,0.05,57.95,0)" xlink:href="#F"/><use transform="matrix(0.05,0,0,0.05,67.95,0)" xlink:href="#z"/><use transform="matrix(0.05,0,0,0.05,72.95,0)" xlink:href="#t"/><use transform="matrix(0.05,0,0,0.05,82.95,0)" xlink:href="#u"/><use transform="matrix(0.05,0,0,0.05,92.95,0)" xlink:href="#C"/><use transform="matrix(0.05,0,0,0.05,102.95,0)" xlink:href="#z"/><use transform="matrix(0.05,0,0,0.05,107.95,0)" xlink:href="#A"/><use transform="matrix(0.05,0,0,0.05,111.9,0)" xlink:href="#s"/><use transform="matrix(0.05,0,0,0.05,120.9,0)" xlink:href="#w"/><use transform="matrix(0.05,0,0,0.05,130.9,0)" xlink:href="#z"/><use transform="matrix(0.05,0,0,0.05,135.9,0)" xlink:href="#A"/><use transform="matrix(0.05,0,0,0.05,139.85,0)" xlink:href="#B"/><use transform="matrix(0.05,0,0,0.05,149.85,0)" xlink:href="#C"/></g><path d="M127-220V0H93v-220H8v-28h204v28h-85" id="I"/><path d="M143 0L79-87 56-68V0H24v-261h32v163l83-92h37l-77 82L181 0h-38" id="J"/><g id="d"><use transform="matrix(0.05,0,0,0.05,0,0)" xlink:href="#r"/><use transform="matrix(0.05,0,0,0.05,9,0)" xlink:href="#v"/><use transform="matrix(0.05,0,0,0.05,23.950000000000003,0)" xlink:href="#z"/><use transform="matrix(0.05,0,0,0.05,28.950000000000003,0)" xlink:href="#D"/><use transform="matrix(0.05,0,0,0.05,33.95,0)" xlink:href="#E"/><use transform="matrix(0.05,0,0,0.05,42.95,0)" xlink:href="#x"/><use transform="matrix(0.05,0,0,0.05,47.95,0)" xlink:href="#I"/><use transform="matrix(0.05,0,0,0.05,56.900000000000006,0)" xlink:href="#B"/><use transform="matrix(0.05,0,0,0.05,66.9,0)" xlink:href="#J"/><use transform="matrix(0.05,0,0,0.05,75.9,0)" xlink:href="#u"/><use transform="matrix(0.05,0,0,0.05,85.9,0)" xlink:href="#C"/><use transform="matrix(0.05,0,0,0.05,95.9,0)" xlink:href="#y"/><use transform="matrix(0.05,0,0,0.05,107.9,0)" xlink:href="#F"/><use transform="matrix(0.05,0,0,0.05,117.9,0)" xlink:href="#z"/><use transform="matrix(0.05,0,0,0.05,122.9,0)" xlink:href="#t"/><use transform="matrix(0.05,0,0,0.05,132.9,0)" xlink:href="#u"/><use transform="matrix(0.05,0,0,0.05,142.9,0)" xlink:href="#C"/><use transform="matrix(0.05,0,0,0.05,152.9,0)" xlink:href="#z"/><use transform="matrix(0.05,0,0,0.05,157.9,0)" xlink:href="#A"/><use transform="matrix(0.05,0,0,0.05,161.85,0)" xlink:href="#s"/><use transform="matrix(0.05,0,0,0.05,170.85,0)" xlink:href="#w"/><use transform="matrix(0.05,0,0,0.05,180.85,0)" xlink:href="#z"/><use transform="matrix(0.05,0,0,0.05,185.85,0)" xlink:href="#A"/><use transform="matrix(0.05,0,0,0.05,189.79999999999998,0)" xlink:href="#B"/><use transform="matrix(0.05,0,0,0.05,199.79999999999998,0)" xlink:href="#C"/></g><path d="M114-163C36-179 61-72 57 0H25l-1-190h30c1 12-1 29 2 39 6-27 23-49 58-41v29" id="K"/><path d="M85-194c31 0 48 13 60 33l-1-100h32l1 261h-30c-2-10 0-23-3-31C134-8 116 4 85 4 32 4 16-35 15-94c0-66 23-100 70-100zm9 24c-40 0-46 34-46 75 0 40 6 74 45 74 42 0 51-32 51-76 0-42-9-74-50-73" id="L"/><path d="M115-194c53 0 69 39 70 98 0 66-23 100-70 100C84 3 66-7 56-30L54 0H23l1-261h32v101c10-23 28-34 59-34zm-8 174c40 0 45-34 45-75 0-40-5-75-45-74-42 0-51 32-51 76 0 43 10 73 51 73" id="M"/><path d="M212-179c-10-28-35-45-73-45-59 0-87 40-87 99 0 60 29 101 89 101 43 0 62-24 78-52l27 14C228-24 195 4 139 4 59 4 22-46 18-125c-6-104 99-153 187-111 19 9 31 26 39 46" id="N"/><path d="M24 0v-261h32V0H24" id="O"/><path d="M140-251c81 0 123 46 123 126C263-46 219 4 140 4 59 4 17-45 17-125s42-126 123-126zm0 227c63 0 89-41 89-101s-29-99-89-99c-61 0-89 39-89 99S79-25 140-24" id="P"/><g id="e"><use transform="matrix(0.05,0,0,0.05,0,0)" xlink:href="#K"/><use transform="matrix(0.05,0,0,0.05,5.95,0)" xlink:href="#L"/><use transform="matrix(0.05,0,0,0.05,15.949999999999998,0)" xlink:href="#D"/><use transform="matrix(0.05,0,0,0.05,20.95,0)" xlink:href="#r"/><use transform="matrix(0.05,0,0,0.05,29.950000000000003,0)" xlink:href="#x"/><use transform="matrix(0.05,0,0,0.05,34.95,0)" xlink:href="#r"/><use transform="matrix(0.05,0,0,0.05,43.95,0)" xlink:href="#F"/><use transform="matrix(0.05,0,0,0.05,53.95,0)" xlink:href="#M"/><use transform="matrix(0.05,0,0,0.05,63.95,0)" xlink:href="#N"/><use transform="matrix(0.05,0,0,0.05,76.9,0)" xlink:href="#O"/><use transform="matrix(0.05,0,0,0.05,80.85000000000001,0)" xlink:href="#w"/><use transform="matrix(0.05,0,0,0.05,90.85000000000001,0)" xlink:href="#r"/><use transform="matrix(0.05,0,0,0.05,99.85000000000001,0)" xlink:href="#r"/><use transform="matrix(0.05,0,0,0.05,108.85000000000001,0)" xlink:href="#P"/><use transform="matrix(0.05,0,0,0.05,122.85000000000001,0)" xlink:href="#D"/></g><path d="M197 0v-115H63V0H30v-248h33v105h134v-105h34V0h-34" id="Q"/><path d="M30-248c87 1 191-15 191 75 0 78-77 80-158 76V0H30v-248zm33 125c57 0 124 11 124-50 0-59-68-47-124-48v98" id="R"/><path d="M160-131c35 5 61 23 61 61C221 17 115-2 30 0v-248c76 3 177-17 177 60 0 33-19 50-47 57zm-97-11c50-1 110 9 110-42 0-47-63-36-110-37v79zm0 115c55-2 124 14 124-45 0-56-70-42-124-44v89" id="S"/><g id="f"><use transform="matrix(0.05,0,0,0.05,0,0)" xlink:href="#r"/><use transform="matrix(0.05,0,0,0.05,9,0)" xlink:href="#v"/><use transform="matrix(0.05,0,0,0.05,23.950000000000003,0)" xlink:href="#z"/><use transform="matrix(0.05,0,0,0.05,28.950000000000003,0)" xlink:href="#D"/><use transform="matrix(0.05,0,0,0.05,33.95,0)" xlink:href="#E"/><use transform="matrix(0.05,0,0,0.05,42.95,0)" xlink:href="#x"/><use transform="matrix(0.05,0,0,0.05,47.95,0)" xlink:href="#Q"/><use transform="matrix(0.05,0,0,0.05,60.900000000000006,0)" xlink:href="#I"/><use transform="matrix(0.05,0,0,0.05,71.85000000000001,0)" xlink:href="#I"/><use transform="matrix(0.05,0,0,0.05,82.80000000000001,0)" xlink:href="#R"/><use transform="matrix(0.05,0,0,0.05,94.80000000000001,0)" xlink:href="#S"/><use transform="matrix(0.05,0,0,0.05,106.80000000000001,0)" xlink:href="#w"/><use transform="matrix(0.05,0,0,0.05,116.80000000000001,0)" xlink:href="#r"/><use transform="matrix(0.05,0,0,0.05,125.80000000000001,0)" xlink:href="#A"/><use transform="matrix(0.05,0,0,0.05,129.75,0)" xlink:href="#s"/><use transform="matrix(0.05,0,0,0.05,138.75,0)" xlink:href="#y"/><use transform="matrix(0.05,0,0,0.05,150.75,0)" xlink:href="#F"/><use transform="matrix(0.05,0,0,0.05,160.75,0)" xlink:href="#z"/><use transform="matrix(0.05,0,0,0.05,165.75,0)" xlink:href="#t"/><use transform="matrix(0.05,0,0,0.05,175.75,0)" xlink:href="#u"/><use transform="matrix(0.05,0,0,0.05,185.75,0)" xlink:href="#C"/><use transform="matrix(0.05,0,0,0.05,195.75,0)" xlink:href="#z"/><use transform="matrix(0.05,0,0,0.05,200.75,0)" xlink:href="#A"/><use transform="matrix(0.05,0,0,0.05,204.7,0)" xlink:href="#s"/><use transform="matrix(0.05,0,0,0.05,213.69999999999996,0)" xlink:href="#w"/><use transform="matrix(0.05,0,0,0.05,223.69999999999996,0)" xlink:href="#z"/><use transform="matrix(0.05,0,0,0.05,228.69999999999996,0)" xlink:href="#A"/><use transform="matrix(0.05,0,0,0.05,232.64999999999998,0)" xlink:href="#B"/><use transform="matrix(0.05,0,0,0.05,242.64999999999998,0)" xlink:href="#C"/></g><g id="g"><use transform="matrix(0.05,0,0,0.05,0,0)" xlink:href="#r"/><use transform="matrix(0.05,0,0,0.05,9,0)" xlink:href="#v"/><use transform="matrix(0.05,0,0,0.05,23.950000000000003,0)" xlink:href="#z"/><use transform="matrix(0.05,0,0,0.05,28.950000000000003,0)" xlink:href="#D"/><use transform="matrix(0.05,0,0,0.05,33.95,0)" xlink:href="#E"/><use transform="matrix(0.05,0,0,0.05,42.95,0)" xlink:href="#x"/><use transform="matrix(0.05,0,0,0.05,47.95,0)" xlink:href="#y"/><use transform="matrix(0.05,0,0,0.05,59.95,0)" xlink:href="#F"/><use transform="matrix(0.05,0,0,0.05,69.95,0)" xlink:href="#z"/><use transform="matrix(0.05,0,0,0.05,74.95,0)" xlink:href="#t"/><use transform="matrix(0.05,0,0,0.05,84.95,0)" xlink:href="#u"/><use transform="matrix(0.05,0,0,0.05,94.95,0)" xlink:href="#C"/><use transform="matrix(0.05,0,0,0.05,104.95,0)" xlink:href="#z"/><use transform="matrix(0.05,0,0,0.05,109.95,0)" xlink:href="#A"/><use transform="matrix(0.05,0,0,0.05,113.9,0)" xlink:href="#s"/><use transform="matrix(0.05,0,0,0.05,122.9,0)" xlink:href="#w"/><use transform="matrix(0.05,0,0,0.05,132.9,0)" xlink:href="#z"/><use transform="matrix(0.05,0,0,0.05,137.9,0)" xlink:href="#u"/><use transform="matrix(0.05,0,0,0.05,147.9,0)" xlink:href="#y"/><use transform="matrix(0.05,0,0,0.05,159.9,0)" xlink:href="#s"/><use transform="matrix(0.05,0,0,0.05,168.9,0)" xlink:href="#z"/><use transform="matrix(0.05,0,0,0.05,173.9,0)" xlink:href="#A"/><use transform="matrix(0.05,0,0,0.05,177.85,0)" xlink:href="#B"/><use transform="matrix(0.05,0,0,0.05,187.85,0)" xlink:href="#C"/></g><g id="h"><use transform="matrix(0.05,0,0,0.05,0,0)" xlink:href="#K"/><use transform="matrix(0.05,0,0,0.05,5.95,0)" xlink:href="#L"/><use transform="matrix(0.05,0,0,0.05,15.949999999999998,0)" xlink:href="#D"/><use transform="matrix(0.05,0,0,0.05,20.95,0)" xlink:href="#r"/><use transform="matrix(0.05,0,0,0.05,29.950000000000003,0)" xlink:href="#x"/><use transform="matrix(0.05,0,0,0.05,34.95,0)" xlink:href="#r"/><use transform="matrix(0.05,0,0,0.05,43.95,0)" xlink:href="#F"/><use transform="matrix(0.05,0,0,0.05,53.95,0)" xlink:href="#M"/><use transform="matrix(0.05,0,0,0.05,63.95,0)" xlink:href="#N"/><use transform="matrix(0.05,0,0,0.05,76.9,0)" xlink:href="#O"/><use transform="matrix(0.05,0,0,0.05,80.85000000000001,0)" xlink:href="#w"/><use transform="matrix(0.05,0,0,0.05,90.85000000000001,0)" xlink:href="#r"/><use transform="matrix(0.05,0,0,0.05,99.85000000000001,0)" xlink:href="#r"/><use transform="matrix(0.05,0,0,0.05,108.85000000000001,0)" xlink:href="#P"/><use transform="matrix(0.05,0,0,0.05,122.85000000000001,0)" xlink:href="#D"/></g><path d="M137 0h-34L2-248h35l83 218 83-218h36" id="T"/><g id="i"><use transform="matrix(0.05,0,0,0.05,0,0)" xlink:href="#r"/><use transform="matrix(0.05,0,0,0.05,9,0)" xlink:href="#s"/><use transform="matrix(0.05,0,0,0.05,18,0)" xlink:href="#t"/><use transform="matrix(0.05,0,0,0.05,28,0)" xlink:href="#u"/><use transform="matrix(0.05,0,0,0.05,38,0)" xlink:href="#v"/><use transform="matrix(0.05,0,0,0.05,52.95,0)" xlink:href="#w"/><use transform="matrix(0.05,0,0,0.05,62.95,0)" xlink:href="#x"/><use transform="matrix(0.05,0,0,0.05,67.95,0)" xlink:href="#R"/><use transform="matrix(0.05,0,0,0.05,79.95,0)" xlink:href="#K"/><use transform="matrix(0.05,0,0,0.05,85.9,0)" xlink:href="#B"/><use transform="matrix(0.05,0,0,0.05,95.9,0)" xlink:href="#H"/><use transform="matrix(0.05,0,0,0.05,105.9,0)" xlink:href="#u"/><use transform="matrix(0.05,0,0,0.05,115.9,0)" xlink:href="#K"/><use transform="matrix(0.05,0,0,0.05,121.85000000000001,0)" xlink:href="#z"/><use transform="matrix(0.05,0,0,0.05,126.85000000000001,0)" xlink:href="#E"/><use transform="matrix(0.05,0,0,0.05,135.85000000000002,0)" xlink:href="#T"/><use transform="matrix(0.05,0,0,0.05,146.50000000000003,0)" xlink:href="#w"/><use transform="matrix(0.05,0,0,0.05,156.50000000000003,0)" xlink:href="#O"/><use transform="matrix(0.05,0,0,0.05,160.45000000000002,0)" xlink:href="#F"/><use transform="matrix(0.05,0,0,0.05,170.45000000000002,0)" xlink:href="#u"/></g><path d="M177-190C167-65 218 103 67 71c-23-6-38-20-44-43l32-5c15 47 100 32 89-28v-30C133-14 115 1 83 1 29 1 15-40 15-95c0-56 16-97 71-98 29-1 48 16 59 35 1-10 0-23 2-32h30zM94-22c36 0 50-32 50-73 0-42-14-75-50-75-39 0-46 34-46 75s6 73 46 73" id="U"/><g id="j"><use transform="matrix(0.05,0,0,0.05,0,0)" xlink:href="#r"/><use transform="matrix(0.05,0,0,0.05,9,0)" xlink:href="#v"/><use transform="matrix(0.05,0,0,0.05,23.950000000000003,0)" xlink:href="#z"/><use transform="matrix(0.05,0,0,0.05,28.950000000000003,0)" xlink:href="#D"/><use transform="matrix(0.05,0,0,0.05,33.95,0)" xlink:href="#E"/><use transform="matrix(0.05,0,0,0.05,42.95,0)" xlink:href="#x"/><use transform="matrix(0.05,0,0,0.05,47.95,0)" xlink:href="#s"/><use transform="matrix(0.05,0,0,0.05,56.95,0)" xlink:href="#K"/><use transform="matrix(0.05,0,0,0.05,62.900000000000006,0)" xlink:href="#u"/><use transform="matrix(0.05,0,0,0.05,72.9,0)" xlink:href="#L"/><use transform="matrix(0.05,0,0,0.05,82.9,0)" xlink:href="#u"/><use transform="matrix(0.05,0,0,0.05,92.9,0)" xlink:href="#C"/><use transform="matrix(0.05,0,0,0.05,102.9,0)" xlink:href="#z"/><use transform="matrix(0.05,0,0,0.05,107.9,0)" xlink:href="#A"/><use transform="matrix(0.05,0,0,0.05,111.85000000000001,0)" xlink:href="#w"/><use transform="matrix(0.05,0,0,0.05,121.85000000000001,0)" xlink:href="#O"/><use transform="matrix(0.05,0,0,0.05,125.80000000000001,0)" xlink:href="#G"/><use transform="matrix(0.05,0,0,0.05,137.8,0)" xlink:href="#z"/><use transform="matrix(0.05,0,0,0.05,142.8,0)" xlink:href="#K"/><use transform="matrix(0.05,0,0,0.05,148.75,0)" xlink:href="#A"/><use transform="matrix(0.05,0,0,0.05,152.7,0)" xlink:href="#C"/><use transform="matrix(0.05,0,0,0.05,162.7,0)" xlink:href="#U"/></g><path d="M141 0L90-78 38 0H4l68-98-65-92h35l48 74 47-74h35l-64 92 68 98h-35" id="V"/><g id="k"><use transform="matrix(0.05,0,0,0.05,0,0)" xlink:href="#I"/><use transform="matrix(0.05,0,0,0.05,8.950000000000001,0)" xlink:href="#u"/><use transform="matrix(0.05,0,0,0.05,18.950000000000003,0)" xlink:href="#V"/><use transform="matrix(0.05,0,0,0.05,27.950000000000003,0)" xlink:href="#z"/></g><path d="M63-220v92h138v28H63V0H30v-248h175v28H63" id="W"/><g id="l"><use transform="matrix(0.05,0,0,0.05,0,0)" xlink:href="#r"/><use transform="matrix(0.05,0,0,0.05,9,0)" xlink:href="#v"/><use transform="matrix(0.05,0,0,0.05,23.950000000000003,0)" xlink:href="#z"/><use transform="matrix(0.05,0,0,0.05,28.950000000000003,0)" xlink:href="#D"/><use transform="matrix(0.05,0,0,0.05,33.95,0)" xlink:href="#E"/><use transform="matrix(0.05,0,0,0.05,42.95,0)" xlink:href="#x"/><use transform="matrix(0.05,0,0,0.05,47.95,0)" xlink:href="#z"/><use transform="matrix(0.05,0,0,0.05,52.95,0)" xlink:href="#B"/><use transform="matrix(0.05,0,0,0.05,62.95,0)" xlink:href="#J"/><use transform="matrix(0.05,0,0,0.05,71.95,0)" xlink:href="#u"/><use transform="matrix(0.05,0,0,0.05,81.95,0)" xlink:href="#C"/><use transform="matrix(0.05,0,0,0.05,91.95,0)" xlink:href="#W"/><use transform="matrix(0.05,0,0,0.05,102.9,0)" xlink:href="#B"/><use transform="matrix(0.05,0,0,0.05,112.9,0)" xlink:href="#K"/><use transform="matrix(0.05,0,0,0.05,118.85000000000001,0)" xlink:href="#v"/><use transform="matrix(0.05,0,0,0.05,133.8,0)" xlink:href="#w"/><use transform="matrix(0.05,0,0,0.05,143.8,0)" xlink:href="#z"/></g><path d="M108 0H70L1-190h34L89-25l56-165h34" id="X"/><g id="m"><use transform="matrix(0.05,0,0,0.05,0,0)" xlink:href="#r"/><use transform="matrix(0.05,0,0,0.05,9,0)" xlink:href="#s"/><use transform="matrix(0.05,0,0,0.05,18,0)" xlink:href="#t"/><use transform="matrix(0.05,0,0,0.05,28,0)" xlink:href="#u"/><use transform="matrix(0.05,0,0,0.05,38,0)" xlink:href="#v"/><use transform="matrix(0.05,0,0,0.05,52.95,0)" xlink:href="#w"/><use transform="matrix(0.05,0,0,0.05,62.95,0)" xlink:href="#x"/><use transform="matrix(0.05,0,0,0.05,67.95,0)" xlink:href="#X"/><use transform="matrix(0.05,0,0,0.05,76.95,0)" xlink:href="#w"/><use transform="matrix(0.05,0,0,0.05,86.95,0)" xlink:href="#O"/><use transform="matrix(0.05,0,0,0.05,90.9,0)" xlink:href="#F"/><use transform="matrix(0.05,0,0,0.05,100.9,0)" xlink:href="#u"/></g><g id="n"><use transform="matrix(0.05,0,0,0.05,0,0)" xlink:href="#I"/><use transform="matrix(0.05,0,0,0.05,8.950000000000001,0)" xlink:href="#u"/><use transform="matrix(0.05,0,0,0.05,18.950000000000003,0)" xlink:href="#V"/><use transform="matrix(0.05,0,0,0.05,27.950000000000003,0)" xlink:href="#z"/></g><g id="o"><use transform="matrix(0.05,0,0,0.05,0,0)" xlink:href="#r"/><use transform="matrix(0.05,0,0,0.05,9,0)" xlink:href="#v"/><use transform="matrix(0.05,0,0,0.05,23.950000000000003,0)" xlink:href="#z"/><use transform="matrix(0.05,0,0,0.05,28.950000000000003,0)" xlink:href="#D"/><use transform="matrix(0.05,0,0,0.05,33.95,0)" xlink:href="#E"/><use transform="matrix(0.05,0,0,0.05,42.95,0)" xlink:href="#x"/><use transform="matrix(0.05,0,0,0.05,47.95,0)" xlink:href="#W"/><use transform="matrix(0.05,0,0,0.05,58.900000000000006,0)" xlink:href="#B"/><use transform="matrix(0.05,0,0,0.05,68.9,0)" xlink:href="#K"/><use transform="matrix(0.05,0,0,0.05,74.85000000000001,0)" xlink:href="#v"/><use transform="matrix(0.05,0,0,0.05,89.80000000000001,0)" xlink:href="#S"/><use transform="matrix(0.05,0,0,0.05,101.80000000000001,0)" xlink:href="#w"/><use transform="matrix(0.05,0,0,0.05,111.80000000000001,0)" xlink:href="#r"/><use transform="matrix(0.05,0,0,0.05,120.80000000000001,0)" xlink:href="#u"/><use transform="matrix(0.05,0,0,0.05,130.8,0)" xlink:href="#L"/><use transform="matrix(0.05,0,0,0.05,140.8,0)" xlink:href="#y"/><use transform="matrix(0.05,0,0,0.05,152.8,0)" xlink:href="#F"/><use transform="matrix(0.05,0,0,0.05,162.8,0)" xlink:href="#z"/><use transform="matrix(0.05,0,0,0.05,167.8,0)" xlink:href="#t"/><use transform="matrix(0.05,0,0,0.05,177.8,0)" xlink:href="#u"/><use transform="matrix(0.05,0,0,0.05,187.8,0)" xlink:href="#C"/><use transform="matrix(0.05,0,0,0.05,197.8,0)" xlink:href="#z"/><use transform="matrix(0.05,0,0,0.05,202.8,0)" xlink:href="#A"/><use transform="matrix(0.05,0,0,0.05,206.75,0)" xlink:href="#s"/><use transform="matrix(0.05,0,0,0.05,215.75,0)" xlink:href="#w"/><use transform="matrix(0.05,0,0,0.05,225.75,0)" xlink:href="#z"/><use transform="matrix(0.05,0,0,0.05,230.75,0)" xlink:href="#A"/><use transform="matrix(0.05,0,0,0.05,234.69999999999996,0)" xlink:href="#B"/><use transform="matrix(0.05,0,0,0.05,244.69999999999996,0)" xlink:href="#C"/></g><path d="M33 0v-248h34V0H33" id="Y"/><g id="p"><use transform="matrix(0.05,0,0,0.05,0,0)" xlink:href="#r"/><use transform="matrix(0.05,0,0,0.05,9,0)" xlink:href="#v"/><use transform="matrix(0.05,0,0,0.05,23.950000000000003,0)" xlink:href="#z"/><use transform="matrix(0.05,0,0,0.05,28.950000000000003,0)" xlink:href="#D"/><use transform="matrix(0.05,0,0,0.05,33.95,0)" xlink:href="#E"/><use transform="matrix(0.05,0,0,0.05,42.95,0)" xlink:href="#x"/><use transform="matrix(0.05,0,0,0.05,47.95,0)" xlink:href="#r"/><use transform="matrix(0.05,0,0,0.05,56.95,0)" xlink:href="#u"/><use transform="matrix(0.05,0,0,0.05,66.95,0)" xlink:href="#C"/><use transform="matrix(0.05,0,0,0.05,76.95,0)" xlink:href="#z"/><use transform="matrix(0.05,0,0,0.05,81.95,0)" xlink:href="#Y"/><use transform="matrix(0.05,0,0,0.05,86.95,0)" xlink:href="#C"/></g><g id="q"><use transform="matrix(0.05,0,0,0.05,0,0)" xlink:href="#r"/><use transform="matrix(0.05,0,0,0.05,9,0)" xlink:href="#v"/><use transform="matrix(0.05,0,0,0.05,23.950000000000003,0)" xlink:href="#z"/><use transform="matrix(0.05,0,0,0.05,28.950000000000003,0)" xlink:href="#D"/><use transform="matrix(0.05,0,0,0.05,33.95,0)" xlink:href="#E"/><use transform="matrix(0.05,0,0,0.05,42.95,0)" xlink:href="#x"/><use transform="matrix(0.05,0,0,0.05,47.95,0)" xlink:href="#u"/><use transform="matrix(0.05,0,0,0.05,57.95,0)" xlink:href="#C"/><use transform="matrix(0.05,0,0,0.05,67.95,0)" xlink:href="#s"/><use transform="matrix(0.05,0,0,0.05,76.95,0)" xlink:href="#B"/><use transform="matrix(0.05,0,0,0.05,86.95,0)" xlink:href="#L"/><use transform="matrix(0.05,0,0,0.05,96.95,0)" xlink:href="#A"/><use transform="matrix(0.05,0,0,0.05,100.9,0)" xlink:href="#C"/><use transform="matrix(0.05,0,0,0.05,110.9,0)" xlink:href="#U"/></g></defs></g></svg>